Coordinates
version=1
nRows=15
nColumns=26
inDegrees=yes

Units are S.I. units (second, meters, Newtons, ...)
If the header above contains a line with 'inDegrees', this indicates whether rotational values are in degrees (yes) or radians (no).

endheader
time	pelvis_tilt	pelvis_list	pelvis_rotation	pelvis_tx	pelvis_ty	pelvis_tz	hip_flexion_r	hip_adduction_r	hip_rotation_r	knee_angle_r	knee_angle_r_beta	ankle_angle_r	subtalar_angle_r	mtp_angle_r	hip_flexion_l	hip_adduction_l	hip_rotation_l	knee_angle_l	knee_angle_l_beta	ankle_angle_l	subtalar_angle_l	mtp_angle_l	lumbar_extension	lumbar_bending	lumbar_rotation
      0.74000000	     -6.43602446	     -7.27323228	      9.72434804	      0.20444391	      0.96759400	      0.17755482	     55.48683317	     -3.86840737	     -1.19636268	    117.97982322	      2.05913637	     19.17858513	      0.00000000	     51.55130666	    -17.54542942	     -9.38891511	     -5.74146989	     25.04133499	      0.43705374	     -5.81576388	      0.00000000	     37.55511193	     -1.33288582	      6.52226095	    -16.12846824
      0.74400000	     -7.12218470	     -7.94951099	      8.98286682	      0.23297941	      0.96764563	      0.17742161	     57.56965836	     -3.43711471	     -2.11909209	    115.24910204	      2.01147629	     19.37008607	      0.00000000	     51.53607749	    -18.58004997	     -9.90829834	     -6.79549154	     23.79328132	      0.41527110	     -9.41234574	      0.00000000	     39.32305924	     -0.18429863	      7.50397525	    -16.16822982
      0.74800000	     -7.78810600	     -8.42784534	      8.16489327	      0.26135866	      0.96789935	      0.17730109	     59.41518626	     -3.02499480	     -2.83053244	    112.32459344	      1.96043399	     19.33264577	      0.00000000	     50.74209297	    -19.58822806	    -10.03818317	     -7.42253434	     22.70565677	      0.39628847	    -11.44916756	      0.00000000	     45.88063854	      0.84116264	      8.31194629	    -16.15067932
      0.75200000	     -8.57747947	     -8.78450666	      7.34922666	      0.28949199	      0.96787994	      0.17724795	     61.26931547	     -2.73766994	     -3.55576194	    109.35967219	      1.90868635	     19.55080522	      0.00000000	     50.81779216	    -20.36625610	    -10.09594808	     -8.30591965	     21.71214944	      0.37894850	    -14.67868703	      0.00000000	     46.97511160	      1.88211975	      8.97056781	    -16.05067078
      0.75600000	     -9.23007600	     -9.01251410	      6.56178394	      0.31737230	      0.96807528	      0.17715460	     62.79068350	     -2.52806169	     -4.32695334	    106.21711528	      1.85383838	     19.78239042	      0.00000000	     50.85395274	    -21.17018776	     -9.94098236	     -8.74365655	     20.92009843	      0.36512460	    -17.68565724	      0.00000000	     47.75659770	      2.68028632	      9.55003281	    -16.00686580
      0.76000000	     -9.79476307	     -9.07068511	      5.79670998	      0.34490700	      0.96835951	      0.17704832	     64.03131617	     -2.40955180	     -5.01475069	    102.92087077	      1.79630806	     19.87441382	      0.00000000	     49.99225209	    -21.88952064	     -9.58386179	     -8.83253799	     20.47412763	      0.35734094	    -20.61826218	      0.00000000	     47.25003702	      3.26986581	      9.95039973	    -15.88216067
      0.76400000	    -10.39548128	     -8.96387101	      5.13057615	      0.37221540	      0.96875677	      0.17683737	     65.12613814	     -2.50405895	     -5.80699049	     99.54425219	      1.73737495	     20.25646047	      0.00000000	     50.05475310	    -22.29438243	     -8.96811276	     -7.93310907	     20.50464158	      0.35787351	    -22.55569307	      0.00000000	     47.68990392	      3.83037248	     10.17225233	    -15.90157332
      0.76800000	    -10.86191069	     -8.79807964	      4.38785857	      0.39920346	      0.96936647	      0.17666074	     65.88406723	     -2.43337370	     -6.43575242	     95.99134819	      1.67536508	     20.53201540	      0.00000000	     50.09490417	    -22.63611007	     -8.16549006	     -6.31413759	     21.11549939	      0.36853499	    -23.90088016	      0.00000000	     47.99019722	      4.11080694	     10.35253267	    -15.74666214
      0.77200000	    -11.53659578	     -8.46105813	      3.85985406	      0.42594845	      0.96970554	      0.17635257	     66.65151383	     -2.60034779	     -6.87329203	     92.27535241	      1.61050872	     20.51766710	      0.00000000	     49.77387741	    -22.49099884	     -7.11064084	     -3.45742315	     22.27523691	      0.38877623	    -24.79363589	      0.00000000	     48.03440579	      4.62707431	     10.27944696	    -15.93774318
      0.77600000	    -12.16892785	     -8.19202939	      3.21329182	      0.45253331	      0.97021713	      0.17617286	     67.16545027	     -2.58788070	     -7.52425308	     88.37467307	      1.54242902	     20.45411840	      0.00000000	     49.36487943	    -22.25885612	     -5.98225210	     -0.51750880	     23.84070491	      0.41609880	    -24.59584012	      0.00000000	     47.64188209	      5.01137700	     10.28920358	    -15.94948589
      0.78000000	    -12.80351979	     -7.99388276	      2.49160305	      0.47896798	      0.97070943	      0.17626045	     67.36759401	     -2.35791039	     -8.13699441	     83.96855431	      1.46552774	     18.70257517	      0.00000000	     42.42193221	    -21.96379116	     -4.82012635	      2.24363934	     25.55476994	      0.44601488	    -24.13951056	      0.00000000	     46.01631989	      5.36184052	     10.37912486	    -15.93331993
      0.78400000	    -13.23546711	     -7.74038284	      1.85753292	      0.50531515	      0.97140811	      0.17642966	     67.30861240	     -2.11264752	     -8.69704121	     79.79875824	      1.39275107	     18.35713366	      0.00000000	     42.41898649	    -21.77859468	     -3.52116724	      5.12315163	     27.45072779	      0.47910558	    -23.46560759	      0.00000000	     45.51025834	      5.44629842	     10.36688257	    -16.00185706
      0.78800000	    -13.50311103	     -7.61220589	      1.18132610	      0.53159975	      0.97227344	      0.17666590	     66.80710488	     -1.71037973	     -9.40278192	     75.28171654	      1.31391382	     16.61284686	      0.00000000	     37.89076201	    -21.68867438	     -2.33390798	      7.41982438	     29.46995795	      0.51434780	    -23.23193593	      0.00000000	     43.80232730	      5.28171722	     10.51309752	    -15.93429213
      0.79200000	    -13.56945760	     -7.50659771	      0.54772498	      0.55795409	      0.97337354	      0.17697640	     66.04610632	     -1.24673834	    -10.11587725	     71.02283852	      1.23958238	     15.80604141	      0.00000000	     38.23846306	    -21.65807950	     -1.18764899	      9.17389363	     31.71476581	      0.55352708	    -23.06646356	      0.00000000	     43.36225580	      4.89479878	     10.65538141	    -15.90119007
      0.79600000	    -13.57456719	     -7.46372885	     -0.18712677	      0.58418945	      0.97441021	      0.17720842	     65.09304215	     -0.66503172	    -10.87871645	     66.73796882	      1.16479729	     14.67338683	      0.00000000	     38.45825057	    -21.49464058	     -0.10729447	     10.13668627	     34.31145096	      0.59884779	    -23.08194326	      0.00000000	     42.83910427	      4.40510632	     10.90036364	    -15.74767312
